<mxfile host="app.diagrams.net" modified="2021-01-11T08:17:07.783Z" agent="5.0 (Windows)" etag="A5mL76FPxSLBnBfPkEqW" version="14.1.8" type="github">
  <diagram id="AvOmc6vkkhdGpk2Jk79S" name="Page-1">
    <mxGraphModel dx="1038" dy="547" grid="1" gridSize="10" guides="1" tooltips="1" connect="1" arrows="1" fold="1" page="1" pageScale="1" pageWidth="1169" pageHeight="827" math="0" shadow="0">
      <root>
        <mxCell id="0" />
        <mxCell id="1" parent="0" />
        <mxCell id="3HwEOPRvEottaWa8547o-1" value="ANNUAL BUDGET PREPARATION" style="swimlane;html=1;childLayout=stackLayout;resizeParent=1;resizeParentMax=0;horizontal=1;startSize=20;horizontalStack=0;" vertex="1" parent="1">
          <mxGeometry x="10" y="10" width="760" height="590" as="geometry" />
        </mxCell>
        <mxCell id="3HwEOPRvEottaWa8547o-2" value="DCS" style="swimlane;html=1;startSize=20;horizontal=0;" vertex="1" parent="3HwEOPRvEottaWa8547o-1">
          <mxGeometry y="20" width="760" height="210" as="geometry" />
        </mxCell>
        <mxCell id="3HwEOPRvEottaWa8547o-6" value="Start" style="rounded=1;whiteSpace=wrap;html=1;" vertex="1" parent="3HwEOPRvEottaWa8547o-2">
          <mxGeometry x="150" y="20" width="80" height="40" as="geometry" />
        </mxCell>
        <mxCell id="3HwEOPRvEottaWa8547o-9" value="Notification to all HoDs to prepare work plans &amp;amp; related budgets" style="rounded=0;whiteSpace=wrap;html=1;" vertex="1" parent="3HwEOPRvEottaWa8547o-2">
          <mxGeometry x="120" y="130" width="140" height="70" as="geometry" />
        </mxCell>
        <mxCell id="3HwEOPRvEottaWa8547o-8" value="" style="edgeStyle=orthogonalEdgeStyle;rounded=0;orthogonalLoop=1;jettySize=auto;html=1;" edge="1" parent="3HwEOPRvEottaWa8547o-2" source="3HwEOPRvEottaWa8547o-6" target="3HwEOPRvEottaWa8547o-9">
          <mxGeometry relative="1" as="geometry">
            <mxPoint x="190" y="130" as="targetPoint" />
          </mxGeometry>
        </mxCell>
        <mxCell id="3HwEOPRvEottaWa8547o-3" value="MFA" style="swimlane;html=1;startSize=20;horizontal=0;" vertex="1" parent="3HwEOPRvEottaWa8547o-1">
          <mxGeometry y="230" width="760" height="120" as="geometry" />
        </mxCell>
        <mxCell id="3HwEOPRvEottaWa8547o-4" value="CEO" style="swimlane;html=1;startSize=20;horizontal=0;" vertex="1" parent="3HwEOPRvEottaWa8547o-1">
          <mxGeometry y="350" width="760" height="120" as="geometry" />
        </mxCell>
        <mxCell id="3HwEOPRvEottaWa8547o-5" value="FGC Chair" style="swimlane;html=1;startSize=20;horizontal=0;" vertex="1" parent="3HwEOPRvEottaWa8547o-1">
          <mxGeometry y="470" width="760" height="120" as="geometry" />
        </mxCell>
      </root>
    </mxGraphModel>
  </diagram>
</mxfile>
